<svg width="150" height="150" viewBox="0 0 150 150" fill="none" xmlns="http://www.w3.org/2000/svg">
<g clip-path="url(#clip0_654_37)">
<path d="M100.856 73.8215C95.2675 65.1032 85.7495 59.8975 75.3948 59.8975C65.0402 59.8975 55.5222 65.1032 49.9346 73.8215L36.4683 94.8292C34.234 98.3143 33.2031 102.341 33.4864 106.472C33.7697 110.603 35.3416 114.45 38.0317 117.599C40.7236 120.746 44.2807 122.897 48.3181 123.82C52.3556 124.743 56.4944 124.349 60.2864 122.682L60.5404 122.569C70.082 118.459 80.9853 118.497 90.5023 122.682C92.9574 123.761 95.5584 124.307 98.183 124.307C99.61 124.307 101.046 124.145 102.468 123.821C106.505 122.899 110.062 120.748 112.755 117.6C115.446 114.454 117.019 110.606 117.303 106.473C117.588 102.341 116.557 98.3152 114.322 94.8283L100.856 73.8215Z" fill="#80EFFD"/>
<path d="M40.0955 73.7939C44.1017 72.2551 47.1452 69.0269 48.665 64.7033C50.1119 60.5891 49.9935 55.9443 48.3305 51.6235C46.6667 47.3056 43.6402 43.7808 39.8084 41.6971C35.7833 39.5093 31.3612 39.153 27.3616 40.6947C19.3152 43.7884 15.6226 53.7318 19.1313 62.8651C21.9341 70.1346 28.4712 74.7235 35.0802 74.7235C36.7678 74.7235 38.4601 74.424 40.0955 73.7939Z" fill="#80EFFD"/>
<path d="M66.2244 57.3352C76.2834 57.3352 84.4672 48.0115 84.4672 36.5511C84.4672 25.0878 76.2834 15.7622 66.2244 15.7622C56.1663 15.7622 47.9834 25.0878 47.9834 36.5511C47.9834 48.0115 56.1663 57.3352 66.2244 57.3352Z" fill="#80EFFD"/>
<path d="M97.73 62.4415H97.7309C99.2782 62.9551 100.857 63.2005 102.429 63.2005C109.765 63.2005 116.914 57.8611 119.642 49.6555C121.213 44.932 121.109 39.9376 119.351 35.5931C117.511 31.045 114.1 27.7438 109.748 26.2969C105.394 24.85 100.685 25.4536 96.4887 27.9949C92.4797 30.4224 89.4078 34.3613 87.8387 39.0848C84.527 49.0491 88.9643 59.5269 97.73 62.4415V62.4415Z" fill="#80EFFD"/>
<path d="M136.148 60.0157L136.145 60.0129C129.208 54.8886 118.834 57.1096 113.017 64.9666C107.206 72.8273 108.114 83.3952 115.041 88.5233C117.567 90.3946 120.552 91.2891 123.606 91.2891C128.931 91.2891 134.47 88.5716 138.173 83.5743C143.983 75.7135 143.075 65.1457 136.148 60.0157V60.0157Z" fill="#80EFFD"/>
</g>
<g clip-path="url(#clip1_654_37)">
<path d="M95.9537 78.7238C90.3651 70.0056 80.8471 64.7998 70.4925 64.7998C60.1378 64.7998 50.6199 70.0056 45.0323 78.7238L31.5659 99.7316C29.3316 103.217 28.3007 107.244 28.584 111.374C28.8673 115.505 30.4393 119.352 33.1294 122.502C35.8213 125.649 39.3783 127.799 43.4158 128.722C47.4532 129.645 51.592 129.251 55.3841 127.584L55.638 127.472C65.1797 123.361 76.0829 123.399 85.6 127.584C88.055 128.664 90.656 129.209 93.2807 129.209C94.7077 129.209 96.1432 129.047 97.5654 128.723C101.603 127.801 105.16 125.65 107.853 122.503C110.544 119.356 112.117 115.508 112.401 111.376C112.685 107.244 111.654 103.218 109.42 99.7306L95.9537 78.7238Z" fill="#3FC5FD"/>
<path d="M35.1932 78.6963C39.1993 77.1575 42.2428 73.9292 43.7627 69.6056C45.2095 65.4914 45.0911 60.8466 43.4282 56.5259C41.7643 52.2079 38.7379 48.6831 34.9061 46.5995C30.8809 44.4116 26.4588 44.0554 22.4593 45.597C14.4128 48.6907 10.7203 58.6341 14.229 67.7674C17.0318 75.0369 23.5688 79.6258 30.1779 79.6258C31.8654 79.6258 33.5577 79.3264 35.1932 78.6963Z" fill="#3FC5FD"/>
<path d="M61.322 62.2376C71.381 62.2376 79.5649 52.9139 79.5649 41.4534C79.5649 29.9902 71.381 20.6646 61.322 20.6646C51.264 20.6646 43.0811 29.9902 43.0811 41.4534C43.0811 52.9139 51.264 62.2376 61.322 62.2376Z" fill="#3FC5FD"/>
<path d="M92.8276 67.3438H92.8286C94.3759 67.8574 95.9545 68.1028 97.5264 68.1028C104.862 68.1028 112.011 62.7635 114.739 54.5578C116.31 49.8344 116.207 44.8399 114.448 40.4955C112.608 35.9473 109.198 32.6461 104.845 31.1992C100.491 29.7523 95.783 30.3559 91.5863 32.8972C87.5773 35.3248 84.5054 39.2637 82.9363 43.9871C79.6247 53.9514 84.062 64.4292 92.8276 67.3438V67.3438Z" fill="#3FC5FD"/>
<path d="M131.246 64.9181L131.243 64.9152C124.306 59.7909 113.931 62.012 108.114 69.8689C102.303 77.7297 103.212 88.2975 110.138 93.4256C112.665 95.297 115.649 96.1914 118.704 96.1914C124.028 96.1914 129.568 93.4739 133.271 88.4766C139.081 80.6159 138.173 70.048 131.246 64.9181V64.9181Z" fill="#3FC5FD"/>
</g>
<g clip-path="url(#clip2_654_37)">
<path d="M91.0513 83.6264C85.4628 74.9081 75.9448 69.7024 65.5902 69.7024C55.2355 69.7024 45.7175 74.9081 40.1299 83.6264L26.6636 104.634C24.4293 108.119 23.3984 112.146 23.6817 116.277C23.965 120.408 25.537 124.255 28.227 127.404C30.919 130.551 34.476 132.702 38.5134 133.625C42.5509 134.548 46.6897 134.154 50.4817 132.487L50.7357 132.374C60.2773 128.264 71.1806 128.302 80.6976 132.487C83.1527 133.566 85.7537 134.112 88.3783 134.112C89.8053 134.112 91.2408 133.95 92.6631 133.626C96.7005 132.704 100.258 130.553 102.95 127.405C105.641 124.259 107.214 120.411 107.499 116.278C107.783 112.146 106.752 108.12 104.518 104.633L91.0513 83.6264Z" fill="#377DFF" fill-opacity="0.9"/>
<path d="M30.2908 83.5989C34.297 82.0601 37.3405 78.8318 38.8603 74.5082C40.3072 70.394 40.1888 65.7492 38.5258 61.4284C36.862 57.1105 33.8356 53.5857 30.0037 51.5021C25.9786 49.3142 21.5565 48.9579 17.5569 50.4996C9.51047 53.5933 5.81793 63.5367 9.32665 72.67C12.1295 79.9395 18.6665 84.5284 25.2755 84.5284C26.9631 84.5284 28.6554 84.229 30.2908 83.5989Z" fill="#377DFF" fill-opacity="0.9"/>
<path d="M56.4197 67.1402C66.4787 67.1402 74.6625 57.8164 74.6625 46.356C74.6625 34.8928 66.4787 25.5671 56.4197 25.5671C46.3616 25.5671 38.1787 34.8928 38.1787 46.356C38.1787 57.8164 46.3616 67.1402 56.4197 67.1402Z" fill="#377DFF" fill-opacity="0.9"/>
<path d="M87.9253 72.2464H87.9262C89.4735 72.76 91.0521 73.0054 92.6241 73.0054C99.9599 73.0054 107.109 67.666 109.837 59.4604C111.408 54.737 111.305 49.7425 109.546 45.3981C107.706 40.8499 104.296 37.5487 99.9428 36.1018C95.5889 34.6549 90.8806 35.2585 86.684 37.7998C82.675 40.2274 79.6031 44.1663 78.034 48.8897C74.7223 58.854 79.1596 69.3318 87.9253 72.2464V72.2464Z" fill="#377DFF" fill-opacity="0.9"/>
<path d="M126.343 69.8206L126.34 69.8178C119.404 64.6935 109.029 66.9146 103.212 74.7715C97.4009 82.6323 98.3096 93.2001 105.236 98.3282C107.762 100.2 110.747 101.094 113.802 101.094C119.126 101.094 124.665 98.3765 128.368 93.3792C134.178 85.5185 133.271 74.9506 126.343 69.8206V69.8206Z" fill="#377DFF" fill-opacity="0.9"/>
</g>
<defs>
<clipPath id="clip0_654_37">
<rect width="124.195" height="124.195" fill="white" transform="translate(17.8047 8)"/>
</clipPath>
<clipPath id="clip1_654_37">
<rect width="124.195" height="124.195" fill="white" transform="translate(12.9023 12.9023)"/>
</clipPath>
<clipPath id="clip2_654_37">
<rect width="124.195" height="124.195" fill="white" transform="translate(8 17.8049)"/>
</clipPath>
</defs>
</svg>
