<svg width="320" height="82" viewBox="0 0 320 82" fill="none" xmlns="http://www.w3.org/2000/svg">
<g clip-path="url(#clip0_650_3)">
<path d="M56.8227 40.2787C53.4028 34.9437 47.5784 31.7581 41.242 31.7581C34.9055 31.7581 29.0811 34.9437 25.6618 40.2787L17.4212 53.1342C16.054 55.2668 15.4231 57.7311 15.5965 60.2586C15.7698 62.7867 16.7318 65.1408 18.3779 67.0682C20.0252 68.9938 22.2019 70.3101 24.6726 70.8748C27.1433 71.4396 29.676 71.1984 31.9965 70.1784L32.1519 70.1094C37.9908 67.5941 44.663 67.6173 50.4868 70.1784C51.9892 70.8389 53.5808 71.1729 55.187 71.1729C56.0602 71.1729 56.9386 71.0737 57.809 70.8754C60.2796 70.3112 62.4563 68.995 64.1042 67.0688C65.751 65.1432 66.7135 62.7885 66.8874 60.2598C67.0614 57.7311 66.4305 55.2674 65.0633 53.1336L56.8227 40.2787Z" fill="#80EFFD"/>
<path d="M19.6407 40.2619C22.0922 39.3203 23.9546 37.3448 24.8847 34.699C25.7701 32.1814 25.6976 29.339 24.68 26.695C23.6618 24.0527 21.8098 21.8957 19.465 20.6206C17.0018 19.2818 14.2957 19.0638 11.8483 20.0072C6.92432 21.9003 4.6647 27.9851 6.81183 33.5741C8.52698 38.0226 12.5273 40.8308 16.5716 40.8308C17.6043 40.8308 18.6399 40.6475 19.6407 40.2619Z" fill="#80EFFD"/>
<path d="M35.6302 30.1902C41.7857 30.1902 46.7937 24.4846 46.7937 17.4716C46.7937 10.4567 41.7857 4.75 35.6302 4.75C29.4752 4.75 24.4678 10.4567 24.4678 17.4716C24.4678 24.4846 29.4752 30.1902 35.6302 30.1902Z" fill="#80EFFD"/>
<path d="M54.9095 33.3149H54.9101C55.857 33.6291 56.823 33.7793 57.7849 33.7793C62.274 33.7793 66.6488 30.5119 68.3182 25.4906C69.2795 22.6001 69.2163 19.5438 68.1402 16.8853C67.0141 14.1021 64.9273 12.0819 62.2635 11.1965C59.5992 10.3111 56.718 10.6805 54.1499 12.2356C51.6967 13.7211 49.8168 16.1315 48.8566 19.0219C46.8301 25.1195 49.5455 31.5313 54.9095 33.3149V33.3149Z" fill="#80EFFD"/>
<path d="M78.4192 31.8304L78.4174 31.8286C74.1725 28.6929 67.8239 30.052 64.2643 34.86C60.7082 39.6703 61.2642 46.1372 65.5028 49.2753C67.0486 50.4205 68.8751 50.9678 70.7445 50.9678C74.0026 50.9678 77.3923 49.3049 79.6583 46.2468C83.2138 41.4365 82.6583 34.9696 78.4192 31.8304V31.8304Z" fill="#80EFFD"/>
</g>
<g clip-path="url(#clip1_650_3)">
<path d="M53.8227 43.2787C50.4028 37.9437 44.5784 34.7581 38.242 34.7581C31.9055 34.7581 26.0811 37.9437 22.6618 43.2787L14.4212 56.1342C13.054 58.2668 12.4231 60.7311 12.5965 63.2586C12.7698 65.7867 13.7318 68.1408 15.3779 70.0682C17.0252 71.9938 19.2019 73.3101 21.6726 73.8748C24.1433 74.4396 26.676 74.1984 28.9965 73.1784L29.1519 73.1094C34.9908 70.5941 41.663 70.6173 47.4868 73.1784C48.9892 73.8389 50.5808 74.1729 52.187 74.1729C53.0602 74.1729 53.9386 74.0737 54.809 73.8754C57.2796 73.3112 59.4563 71.995 61.1042 70.0688C62.751 68.1432 63.7135 65.7885 63.8874 63.2598C64.0614 60.7311 63.4305 58.2674 62.0633 56.1336L53.8227 43.2787Z" fill="#3FC5FD"/>
<path d="M16.6407 43.2619C19.0922 42.3203 20.9546 40.3448 21.8847 37.699C22.7701 35.1814 22.6976 32.339 21.68 29.695C20.6618 27.0527 18.8098 24.8957 16.465 23.6206C14.0018 22.2818 11.2957 22.0638 8.84827 23.0072C3.92432 24.9003 1.6647 30.9851 3.81183 36.5741C5.52698 41.0226 9.52725 43.8308 13.5716 43.8308C14.6043 43.8308 15.6399 43.6475 16.6407 43.2619Z" fill="#3FC5FD"/>
<path d="M32.6302 33.1902C38.7857 33.1902 43.7937 27.4846 43.7937 20.4716C43.7937 13.4567 38.7857 7.75 32.6302 7.75C26.4752 7.75 21.4678 13.4567 21.4678 20.4716C21.4678 27.4846 26.4752 33.1902 32.6302 33.1902Z" fill="#3FC5FD"/>
<path d="M51.9095 36.3149H51.9101C52.857 36.6291 53.823 36.7793 54.7849 36.7793C59.274 36.7793 63.6488 33.5119 65.3182 28.4906C66.2795 25.6001 66.2163 22.5438 65.1402 19.8853C64.0141 17.1021 61.9273 15.0819 59.2635 14.1965C56.5992 13.3111 53.718 13.6805 51.1499 15.2356C48.6967 16.7211 46.8168 19.1315 45.8566 22.0219C43.8301 28.1195 46.5455 34.5313 51.9095 36.3149V36.3149Z" fill="#3FC5FD"/>
<path d="M75.4192 34.8304L75.4174 34.8286C71.1725 31.6929 64.8239 33.052 61.2643 37.86C57.7082 42.6703 58.2642 49.1372 62.5028 52.2753C64.0486 53.4205 65.8751 53.9678 67.7445 53.9678C71.0026 53.9678 74.3923 52.3049 76.6583 49.2468C80.2138 44.4365 79.6583 37.9696 75.4192 34.8304V34.8304Z" fill="#3FC5FD"/>
</g>
<g clip-path="url(#clip2_650_3)">
<path d="M50.8227 46.2787C47.4028 40.9437 41.5784 37.7581 35.242 37.7581C28.9055 37.7581 23.0811 40.9437 19.6618 46.2787L11.4212 59.1342C10.054 61.2668 9.42311 63.7311 9.59648 66.2586C9.76985 68.7867 10.7318 71.1408 12.3779 73.0682C14.0252 74.9938 16.2019 76.3101 18.6726 76.8748C21.1433 77.4396 23.676 77.1984 25.9965 76.1784L26.1519 76.1094C31.9908 73.5941 38.663 73.6173 44.4868 76.1784C45.9892 76.8389 47.5808 77.1729 49.187 77.1729C50.0602 77.1729 50.9386 77.0737 51.809 76.8754C54.2796 76.3112 56.4563 74.995 58.1042 73.0688C59.751 71.1432 60.7135 68.7885 60.8874 66.2598C61.0614 63.7311 60.4305 61.2674 59.0633 59.1336L50.8227 46.2787Z" fill="#377DFF" fill-opacity="0.9"/>
<path d="M13.6407 46.2619C16.0922 45.3203 17.9546 43.3448 18.8847 40.699C19.7701 38.1814 19.6976 35.339 18.68 32.695C17.6618 30.0527 15.8098 27.8957 13.465 26.6206C11.0018 25.2818 8.29575 25.0638 5.84827 26.0072C0.924318 27.9003 -1.3353 33.9851 0.81183 39.5741C2.52698 44.0226 6.52725 46.8308 10.5716 46.8308C11.6043 46.8308 12.6399 46.6475 13.6407 46.2619Z" fill="#377DFF" fill-opacity="0.9"/>
<path d="M29.6302 36.1902C35.7857 36.1902 40.7937 30.4846 40.7937 23.4716C40.7937 16.4567 35.7857 10.75 29.6302 10.75C23.4752 10.75 18.4678 16.4567 18.4678 23.4716C18.4678 30.4846 23.4752 36.1902 29.6302 36.1902Z" fill="#377DFF" fill-opacity="0.9"/>
<path d="M48.9095 39.3149H48.9101C49.857 39.6291 50.823 39.7793 51.7849 39.7793C56.274 39.7793 60.6488 36.5119 62.3182 31.4906C63.2795 28.6001 63.2163 25.5438 62.1402 22.8853C61.0141 20.1021 58.9273 18.0819 56.2635 17.1965C53.5992 16.3111 50.718 16.6805 48.1499 18.2356C45.6967 19.7211 43.8168 22.1315 42.8566 25.0219C40.8301 31.1195 43.5455 37.5313 48.9095 39.3149V39.3149Z" fill="#377DFF" fill-opacity="0.9"/>
<path d="M72.4192 37.8304L72.4174 37.8286C68.1725 34.6929 61.8239 36.052 58.2643 40.86C54.7082 45.6703 55.2642 52.1372 59.5028 55.2753C61.0486 56.4205 62.8751 56.9678 64.7445 56.9678C68.0026 56.9678 71.3923 55.3049 73.6583 52.2468C77.2138 47.4365 76.6583 40.9696 72.4192 37.8304V37.8304Z" fill="#377DFF" fill-opacity="0.9"/>
</g>
<path d="M98.28 38C98.104 38 97.96 37.944 97.848 37.832C97.736 37.72 97.68 37.576 97.68 37.4V21.8C97.68 21.624 97.736 21.48 97.848 21.368C97.96 21.256 98.104 21.2 98.28 21.2H105.6C106.976 21.2 108.104 21.392 108.984 21.776C109.864 22.16 110.512 22.712 110.928 23.432C111.36 24.136 111.576 24.976 111.576 25.952C111.576 26.528 111.464 27.04 111.24 27.488C111.032 27.92 110.768 28.28 110.448 28.568C110.144 28.856 109.856 29.064 109.584 29.192C110.192 29.48 110.728 29.952 111.192 30.608C111.672 31.264 111.912 32.032 111.912 32.912C111.912 33.968 111.672 34.88 111.192 35.648C110.728 36.4 110.04 36.984 109.128 37.4C108.232 37.8 107.128 38 105.816 38H98.28ZM101.976 34.88H105.336C106.024 34.88 106.544 34.68 106.896 34.28C107.248 33.88 107.424 33.424 107.424 32.912C107.424 32.352 107.24 31.88 106.872 31.496C106.52 31.112 106.008 30.92 105.336 30.92H101.976V34.88ZM101.976 27.872H105.12C105.776 27.872 106.264 27.704 106.584 27.368C106.92 27.032 107.088 26.6 107.088 26.072C107.088 25.56 106.92 25.144 106.584 24.824C106.264 24.488 105.776 24.32 105.12 24.32H101.976V27.872ZM116.018 38C115.842 38 115.698 37.944 115.586 37.832C115.474 37.72 115.418 37.576 115.418 37.4V21.8C115.418 21.624 115.474 21.48 115.586 21.368C115.698 21.256 115.842 21.2 116.018 21.2H127.226C127.402 21.2 127.546 21.256 127.658 21.368C127.77 21.48 127.826 21.624 127.826 21.8V24.056C127.826 24.232 127.77 24.376 127.658 24.488C127.546 24.6 127.402 24.656 127.226 24.656H119.57V27.896H126.698C126.874 27.896 127.018 27.96 127.13 28.088C127.242 28.2 127.298 28.344 127.298 28.52V30.608C127.298 30.768 127.242 30.912 127.13 31.04C127.018 31.152 126.874 31.208 126.698 31.208H119.57V34.544H127.418C127.594 34.544 127.738 34.6 127.85 34.712C127.962 34.824 128.018 34.968 128.018 35.144V37.4C128.018 37.576 127.962 37.72 127.85 37.832C127.738 37.944 127.594 38 127.418 38H116.018ZM135.883 38C135.707 38 135.563 37.944 135.451 37.832C135.339 37.72 135.283 37.576 135.283 37.4V24.968H131.011C130.835 24.968 130.691 24.912 130.579 24.8C130.467 24.672 130.411 24.528 130.411 24.368V21.8C130.411 21.624 130.467 21.48 130.579 21.368C130.691 21.256 130.835 21.2 131.011 21.2H143.923C144.099 21.2 144.243 21.256 144.355 21.368C144.467 21.48 144.523 21.624 144.523 21.8V24.368C144.523 24.528 144.467 24.672 144.355 24.8C144.243 24.912 144.099 24.968 143.923 24.968H139.651V37.4C139.651 37.576 139.595 37.72 139.483 37.832C139.371 37.944 139.227 38 139.051 38H135.883ZM148.144 38C147.968 38 147.824 37.944 147.712 37.832C147.6 37.72 147.544 37.576 147.544 37.4V21.8C147.544 21.624 147.6 21.48 147.712 21.368C147.824 21.256 147.968 21.2 148.144 21.2H159.352C159.528 21.2 159.672 21.256 159.784 21.368C159.896 21.48 159.952 21.624 159.952 21.8V24.056C159.952 24.232 159.896 24.376 159.784 24.488C159.672 24.6 159.528 24.656 159.352 24.656H151.696V27.896H158.824C159 27.896 159.144 27.96 159.256 28.088C159.368 28.2 159.424 28.344 159.424 28.52V30.608C159.424 30.768 159.368 30.912 159.256 31.04C159.144 31.152 159 31.208 158.824 31.208H151.696V34.544H159.544C159.72 34.544 159.864 34.6 159.976 34.712C160.088 34.824 160.144 34.968 160.144 35.144V37.4C160.144 37.576 160.088 37.72 159.976 37.832C159.864 37.944 159.72 38 159.544 38H148.144ZM164.312 38C164.136 38 163.992 37.944 163.88 37.832C163.768 37.72 163.712 37.576 163.712 37.4V21.8C163.712 21.624 163.768 21.48 163.88 21.368C163.992 21.256 164.136 21.2 164.312 21.2H171.032C172.36 21.2 173.512 21.408 174.488 21.824C175.48 22.224 176.248 22.832 176.792 23.648C177.352 24.464 177.632 25.496 177.632 26.744C177.632 27.976 177.352 28.992 176.792 29.792C176.248 30.592 175.48 31.184 174.488 31.568C173.512 31.952 172.36 32.144 171.032 32.144H168.176V37.4C168.176 37.576 168.112 37.72 167.984 37.832C167.872 37.944 167.728 38 167.552 38H164.312ZM168.104 28.832H170.912C171.6 28.832 172.144 28.656 172.544 28.304C172.96 27.952 173.168 27.416 173.168 26.696C173.168 26.088 172.992 25.576 172.64 25.16C172.288 24.744 171.712 24.536 170.912 24.536H168.104V28.832ZM181.371 38C181.195 38 181.051 37.944 180.939 37.832C180.827 37.704 180.771 37.56 180.771 37.4V21.8C180.771 21.624 180.827 21.48 180.939 21.368C181.067 21.256 181.211 21.2 181.371 21.2H184.467C184.643 21.2 184.787 21.256 184.899 21.368C185.011 21.48 185.067 21.624 185.067 21.8V31.472L191.907 21.656C191.987 21.528 192.091 21.424 192.219 21.344C192.347 21.248 192.515 21.2 192.723 21.2H195.507C195.667 21.2 195.803 21.256 195.915 21.368C196.043 21.48 196.107 21.624 196.107 21.8V37.4C196.107 37.576 196.043 37.72 195.915 37.832C195.803 37.944 195.667 38 195.507 38H192.411C192.235 38 192.083 37.944 191.955 37.832C191.843 37.72 191.787 37.576 191.787 37.4V28.088L184.971 37.544C184.891 37.656 184.787 37.76 184.659 37.856C184.547 37.952 184.379 38 184.155 38H181.371ZM200.89 38C200.714 38 200.57 37.944 200.458 37.832C200.346 37.72 200.29 37.576 200.29 37.4V21.8C200.29 21.624 200.346 21.48 200.458 21.368C200.57 21.256 200.714 21.2 200.89 21.2H203.986C204.162 21.2 204.306 21.256 204.418 21.368C204.53 21.48 204.586 21.624 204.586 21.8V27.584H210.514V21.8C210.514 21.624 210.57 21.48 210.682 21.368C210.794 21.256 210.938 21.2 211.114 21.2H214.21C214.386 21.2 214.53 21.256 214.642 21.368C214.754 21.48 214.81 21.624 214.81 21.8V37.4C214.81 37.576 214.754 37.72 214.642 37.832C214.53 37.944 214.386 38 214.21 38H211.114C210.938 38 210.794 37.944 210.682 37.832C210.57 37.72 210.514 37.576 210.514 37.4V31.424H204.586V37.4C204.586 37.576 204.53 37.72 204.418 37.832C204.306 37.944 204.162 38 203.986 38H200.89ZM218.053 38C217.925 38 217.805 37.952 217.693 37.856C217.597 37.744 217.549 37.624 217.549 37.496C217.549 37.416 217.557 37.344 217.573 37.28L223.213 21.872C223.261 21.696 223.357 21.544 223.501 21.416C223.661 21.272 223.877 21.2 224.149 21.2H227.701C227.973 21.2 228.181 21.272 228.325 21.416C228.485 21.544 228.589 21.696 228.637 21.872L234.253 37.28C234.285 37.344 234.301 37.416 234.301 37.496C234.301 37.624 234.245 37.744 234.133 37.856C234.037 37.952 233.917 38 233.773 38H230.821C230.581 38 230.397 37.944 230.269 37.832C230.157 37.704 230.085 37.592 230.053 37.496L229.117 35.048H222.709L221.797 37.496C221.765 37.592 221.693 37.704 221.581 37.832C221.469 37.944 221.277 38 221.005 38H218.053ZM223.693 31.592H228.157L225.901 25.256L223.693 31.592ZM237.633 38C237.457 38 237.313 37.944 237.201 37.832C237.089 37.72 237.033 37.576 237.033 37.4V21.8C237.033 21.624 237.089 21.48 237.201 21.368C237.313 21.256 237.457 21.2 237.633 21.2H244.353C245.681 21.2 246.833 21.408 247.809 21.824C248.801 22.224 249.569 22.832 250.113 23.648C250.673 24.464 250.953 25.496 250.953 26.744C250.953 27.976 250.673 28.992 250.113 29.792C249.569 30.592 248.801 31.184 247.809 31.568C246.833 31.952 245.681 32.144 244.353 32.144H241.497V37.4C241.497 37.576 241.433 37.72 241.305 37.832C241.193 37.944 241.049 38 240.873 38H237.633ZM241.425 28.832H244.233C244.921 28.832 245.465 28.656 245.865 28.304C246.281 27.952 246.489 27.416 246.489 26.696C246.489 26.088 246.313 25.576 245.961 25.16C245.609 24.744 245.033 24.536 244.233 24.536H241.425V28.832ZM254.692 38C254.516 38 254.372 37.944 254.26 37.832C254.148 37.72 254.092 37.576 254.092 37.4V21.8C254.092 21.624 254.148 21.48 254.26 21.368C254.372 21.256 254.516 21.2 254.692 21.2H257.788C257.964 21.2 258.108 21.256 258.22 21.368C258.332 21.48 258.388 21.624 258.388 21.8V27.584H264.316V21.8C264.316 21.624 264.372 21.48 264.484 21.368C264.596 21.256 264.74 21.2 264.916 21.2H268.012C268.188 21.2 268.332 21.256 268.444 21.368C268.556 21.48 268.612 21.624 268.612 21.8V37.4C268.612 37.576 268.556 37.72 268.444 37.832C268.332 37.944 268.188 38 268.012 38H264.916C264.74 38 264.596 37.944 264.484 37.832C264.372 37.72 264.316 37.576 264.316 37.4V31.424H258.388V37.4C258.388 37.576 258.332 37.72 258.22 37.832C258.108 37.944 257.964 38 257.788 38H254.692ZM273.414 38C273.238 38 273.094 37.944 272.982 37.832C272.87 37.72 272.814 37.576 272.814 37.4V21.8C272.814 21.624 272.87 21.48 272.982 21.368C273.094 21.256 273.238 21.2 273.414 21.2H276.51C276.686 21.2 276.83 21.256 276.942 21.368C277.054 21.48 277.11 21.624 277.11 21.8V26.96H279.39C281.438 26.96 283.03 27.416 284.166 28.328C285.302 29.224 285.87 30.584 285.87 32.408C285.87 33.512 285.622 34.488 285.126 35.336C284.63 36.184 283.894 36.84 282.918 37.304C281.958 37.768 280.782 38 279.39 38H273.414ZM277.11 34.664H279.294C279.982 34.664 280.502 34.456 280.854 34.04C281.222 33.608 281.406 33.064 281.406 32.408C281.406 31.688 281.214 31.152 280.83 30.8C280.462 30.448 279.95 30.272 279.294 30.272H277.11V34.664ZM288.294 38C288.118 38 287.974 37.944 287.862 37.832C287.75 37.72 287.694 37.576 287.694 37.4V21.8C287.694 21.624 287.75 21.48 287.862 21.368C287.974 21.256 288.118 21.2 288.294 21.2H291.51C291.686 21.2 291.83 21.256 291.942 21.368C292.054 21.48 292.11 21.624 292.11 21.8V37.4C292.11 37.576 292.054 37.72 291.942 37.832C291.83 37.944 291.686 38 291.51 38H288.294ZM296.918 38C296.742 38 296.598 37.944 296.486 37.832C296.374 37.704 296.318 37.56 296.318 37.4V21.8C296.318 21.624 296.374 21.48 296.486 21.368C296.614 21.256 296.758 21.2 296.918 21.2H300.014C300.19 21.2 300.334 21.256 300.446 21.368C300.558 21.48 300.614 21.624 300.614 21.8V31.472L307.454 21.656C307.534 21.528 307.638 21.424 307.766 21.344C307.894 21.248 308.062 21.2 308.27 21.2H311.054C311.214 21.2 311.35 21.256 311.462 21.368C311.59 21.48 311.654 21.624 311.654 21.8V37.4C311.654 37.576 311.59 37.72 311.462 37.832C311.35 37.944 311.214 38 311.054 38H307.958C307.782 38 307.63 37.944 307.502 37.832C307.39 37.72 307.334 37.576 307.334 37.4V28.088L300.518 37.544C300.438 37.656 300.334 37.76 300.206 37.856C300.094 37.952 299.926 38 299.702 38H296.918ZM304.07 20.216C303.046 20.216 302.222 20.064 301.598 19.76C300.974 19.44 300.518 19.024 300.23 18.512C299.942 17.984 299.798 17.408 299.798 16.784C299.798 16.656 299.838 16.552 299.918 16.472C299.998 16.376 300.11 16.328 300.254 16.328H302.174C302.318 16.328 302.43 16.376 302.51 16.472C302.59 16.552 302.63 16.656 302.63 16.784C302.63 16.992 302.67 17.2 302.75 17.408C302.83 17.6 302.974 17.76 303.182 17.888C303.39 18 303.686 18.056 304.07 18.056C304.454 18.056 304.742 18 304.934 17.888C305.142 17.76 305.286 17.6 305.366 17.408C305.446 17.2 305.486 16.992 305.486 16.784C305.486 16.656 305.526 16.552 305.606 16.472C305.686 16.376 305.798 16.328 305.942 16.328H307.862C308.006 16.328 308.118 16.376 308.198 16.472C308.278 16.552 308.318 16.656 308.318 16.784C308.318 17.408 308.174 17.984 307.886 18.512C307.614 19.024 307.166 19.44 306.542 19.76C305.918 20.064 305.094 20.216 304.07 20.216ZM98.28 66C98.104 66 97.96 65.944 97.848 65.832C97.736 65.72 97.68 65.576 97.68 65.4V49.8C97.68 49.624 97.736 49.48 97.848 49.368C97.96 49.256 98.104 49.2 98.28 49.2H111.6C111.776 49.2 111.92 49.256 112.032 49.368C112.144 49.48 112.2 49.624 112.2 49.8V65.4C112.2 65.576 112.144 65.72 112.032 65.832C111.92 65.944 111.776 66 111.6 66H108.504C108.328 66 108.184 65.944 108.072 65.832C107.96 65.72 107.904 65.576 107.904 65.4V53.04H101.976V65.4C101.976 65.576 101.92 65.72 101.808 65.832C101.696 65.944 101.552 66 101.376 66H98.28ZM123.267 66.24C121.795 66.24 120.515 66 119.427 65.52C118.339 65.04 117.491 64.32 116.883 63.36C116.275 62.384 115.939 61.168 115.875 59.712C115.859 59.024 115.851 58.336 115.851 57.648C115.851 56.96 115.859 56.264 115.875 55.56C115.939 54.12 116.275 52.912 116.883 51.936C117.507 50.944 118.363 50.2 119.451 49.704C120.539 49.208 121.811 48.96 123.267 48.96C124.707 48.96 125.971 49.208 127.059 49.704C128.163 50.2 129.027 50.944 129.651 51.936C130.275 52.912 130.611 54.12 130.659 55.56C130.691 56.264 130.707 56.96 130.707 57.648C130.707 58.336 130.691 59.024 130.659 59.712C130.595 61.168 130.259 62.384 129.651 63.36C129.043 64.32 128.195 65.04 127.107 65.52C126.019 66 124.739 66.24 123.267 66.24ZM123.267 62.784C124.115 62.784 124.803 62.528 125.331 62.016C125.875 61.504 126.163 60.688 126.195 59.568C126.227 58.864 126.243 58.2 126.243 57.576C126.243 56.952 126.227 56.304 126.195 55.632C126.163 54.88 126.019 54.272 125.763 53.808C125.523 53.328 125.187 52.976 124.755 52.752C124.323 52.528 123.827 52.416 123.267 52.416C122.723 52.416 122.235 52.528 121.803 52.752C121.371 52.976 121.027 53.328 120.771 53.808C120.515 54.272 120.371 54.88 120.339 55.632C120.323 56.304 120.315 56.952 120.315 57.576C120.315 58.2 120.323 58.864 120.339 59.568C120.387 60.688 120.675 61.504 121.203 62.016C121.731 62.528 122.419 62.784 123.267 62.784ZM134.929 66C134.753 66 134.609 65.944 134.497 65.832C134.385 65.72 134.329 65.576 134.329 65.4V49.8C134.329 49.624 134.385 49.48 134.497 49.368C134.609 49.256 134.753 49.2 134.929 49.2H141.649C142.977 49.2 144.129 49.408 145.105 49.824C146.097 50.224 146.865 50.832 147.409 51.648C147.969 52.464 148.249 53.496 148.249 54.744C148.249 55.976 147.969 56.992 147.409 57.792C146.865 58.592 146.097 59.184 145.105 59.568C144.129 59.952 142.977 60.144 141.649 60.144H138.793V65.4C138.793 65.576 138.729 65.72 138.601 65.832C138.489 65.944 138.345 66 138.169 66H134.929ZM138.721 56.832H141.529C142.217 56.832 142.761 56.656 143.161 56.304C143.577 55.952 143.785 55.416 143.785 54.696C143.785 54.088 143.609 53.576 143.257 53.16C142.905 52.744 142.329 52.536 141.529 52.536H138.721V56.832ZM155.684 66C155.508 66 155.364 65.944 155.252 65.832C155.14 65.72 155.084 65.576 155.084 65.4V52.968H150.812C150.636 52.968 150.492 52.912 150.38 52.8C150.268 52.672 150.212 52.528 150.212 52.368V49.8C150.212 49.624 150.268 49.48 150.38 49.368C150.492 49.256 150.636 49.2 150.812 49.2H163.724C163.9 49.2 164.044 49.256 164.156 49.368C164.268 49.48 164.324 49.624 164.324 49.8V52.368C164.324 52.528 164.268 52.672 164.156 52.8C164.044 52.912 163.9 52.968 163.724 52.968H159.452V65.4C159.452 65.576 159.396 65.72 159.284 65.832C159.172 65.944 159.028 66 158.852 66H155.684ZM166.385 66C166.257 66 166.137 65.952 166.025 65.856C165.929 65.744 165.881 65.624 165.881 65.496C165.881 65.416 165.889 65.344 165.905 65.28L171.545 49.872C171.593 49.696 171.689 49.544 171.833 49.416C171.993 49.272 172.209 49.2 172.481 49.2H176.033C176.305 49.2 176.513 49.272 176.657 49.416C176.817 49.544 176.921 49.696 176.969 49.872L182.585 65.28C182.617 65.344 182.633 65.416 182.633 65.496C182.633 65.624 182.577 65.744 182.465 65.856C182.369 65.952 182.249 66 182.105 66H179.153C178.913 66 178.729 65.944 178.601 65.832C178.489 65.704 178.417 65.592 178.385 65.496L177.449 63.048H171.041L170.129 65.496C170.097 65.592 170.025 65.704 169.913 65.832C169.801 65.944 169.609 66 169.337 66H166.385ZM172.025 59.592H176.489L174.233 53.256L172.025 59.592ZM196.62 66C196.444 66 196.3 65.944 196.188 65.832C196.076 65.72 196.02 65.576 196.02 65.4V53.04H191.556V55.224C191.556 57.16 191.46 58.808 191.268 60.168C191.092 61.512 190.764 62.616 190.284 63.48C189.82 64.328 189.156 64.952 188.292 65.352C187.444 65.752 186.348 65.968 185.004 66C184.844 66 184.7 65.944 184.572 65.832C184.444 65.704 184.38 65.552 184.38 65.376V62.856C184.38 62.504 184.58 62.304 184.98 62.256C185.428 62.176 185.804 61.944 186.108 61.56C186.412 61.176 186.66 60.664 186.852 60.024C187.044 59.368 187.18 58.592 187.26 57.696C187.34 56.784 187.38 55.776 187.38 54.672V49.8C187.38 49.624 187.436 49.48 187.548 49.368C187.676 49.256 187.828 49.2 188.004 49.2H199.716C199.892 49.2 200.036 49.256 200.148 49.368C200.26 49.48 200.316 49.624 200.316 49.8V65.4C200.316 65.576 200.26 65.72 200.148 65.832C200.036 65.944 199.892 66 199.716 66H196.62Z" fill="#1F1B2D"/>
<defs>
<clipPath id="clip0_650_3">
<rect width="76" height="76" fill="white" transform="translate(6)"/>
</clipPath>
<clipPath id="clip1_650_3">
<rect width="76" height="76" fill="white" transform="translate(3 3)"/>
</clipPath>
<clipPath id="clip2_650_3">
<rect width="76" height="76" fill="white" transform="translate(0 6)"/>
</clipPath>
</defs>
</svg>
